<?xml version="1.0" encoding="utf-8"?>
<!-- Generator: Adobe Illustrator 22.0.0, SVG Export Plug-In . SVG Version: 6.00 Build 0)  -->
<svg version="1.1" id="Layer_1" xmlns="http://www.w3.org/2000/svg" xmlns:xlink="http://www.w3.org/1999/xlink" x="0px" y="0px"
	 viewBox="0 0 871.7 897.4" style="enable-background:new 0 0 871.7 897.4;" xml:space="preserve">
<style type="text/css">
	.st0{opacity:3.000000e-02;fill:url(#Path_187_1_);enable-background:new    ;}
	.st1{opacity:6.000000e-02;fill:#80ED3A;enable-background:new    ;}
</style>
<g id="Group_109" transform="translate(-1062.343 -2321.862)">
	
		<linearGradient id="Path_187_1_" gradientUnits="userSpaceOnUse" x1="540.4431" y1="3311.7617" x2="540.4431" y2="3310.7617" gradientTransform="matrix(871.6522 0 0 -897.3884 -469580.1875 2974258.5)">
		<stop  offset="0" style="stop-color:#33C8C1"/>
		<stop  offset="1" style="stop-color:#119BD2"/>
	</linearGradient>
	<path id="Path_187" class="st0" d="M1933,2321.9c0,0-94.8,231.5-425,157.4s-471.1,172.1-441.9,381.7s109.3,282.1,352.1,174.1
		s414.7-54.1,514.8,184.2C1935.2,3220.9,1933,2321.9,1933,2321.9z"/>
	<path id="Path_197" class="st1" d="M1933,2321.9c0,0-94.8,231.5-425,157.4s-471.1,172.1-441.9,381.7s109.3,282.1,352.1,174.1
		s414.7-54.1,514.8,184.2C1935.2,3220.9,1933,2321.9,1933,2321.9z"/>
	<path id="Path_197_1_" class="st1" d="M1933.6,2668.7c0,0-58.1,141.9-260.4,96.5c-202.3-45.4-288.7,105.5-270.8,233.9
		c17.9,128.4,67,172.9,215.7,106.7c148.8-66.2,254.1-33.1,315.4,112.9C1935,3219.5,1933.6,2668.7,1933.6,2668.7z"/>
</g>
</svg>
