<?xml version="1.0" encoding="utf-8"?>
<!-- Generator: Adobe Illustrator 22.0.0, SVG Export Plug-In . SVG Version: 6.00 Build 0)  -->
<svg version="1.1" id="Layer_1" xmlns="http://www.w3.org/2000/svg" xmlns:xlink="http://www.w3.org/1999/xlink" x="0px" y="0px"
	 viewBox="0 0 111.2 30.6" style="enable-background:new 0 0 111.2 30.6;" xml:space="preserve">
<path d="M15.3,0.2C6.9,0.2,0.1,6.9,0.1,15.3c0,8.4,6.8,15.1,15.1,15.1c8.4,0,15.1-6.8,15.1-15.1C30.4,6.9,23.6,0.2,15.3,0.2
	C15.3,0.2,15.3,0.2,15.3,0.2z M22.2,22c-0.3,0.4-0.9,0.6-1.3,0.3c-3.6-2.2-8-2.7-13.3-1.5c-0.5,0.1-1-0.2-1.1-0.7
	c-0.1-0.5,0.2-1,0.7-1.1c5.8-1.3,10.7-0.8,14.7,1.7C22.4,21,22.5,21.6,22.2,22z M24.1,17.9c-0.3,0.6-1.1,0.7-1.6,0.4
	c-4.1-2.5-10.3-3.2-15.1-1.8c-0.6,0.2-1.3-0.2-1.5-0.8c-0.2-0.6,0.2-1.3,0.8-1.5c5.5-1.7,12.3-0.9,17,2
	C24.2,16.6,24.4,17.3,24.1,17.9L24.1,17.9z M24.2,13.6c-4.9-2.9-12.9-3.2-17.6-1.8c-0.7,0.2-1.5-0.2-1.8-0.9
	c-0.2-0.7,0.2-1.5,0.9-1.8c5.4-1.6,14.2-1.3,19.9,2c0.7,0.4,0.9,1.3,0.5,1.9C25.8,13.8,24.9,14,24.2,13.6L24.2,13.6z M41.3,14.2
	c-2.6-0.6-3.1-1.1-3.1-2c0-0.9,0.8-1.5,2-1.5c1.2,0,2.3,0.4,3.6,1.4c0,0,0.1,0,0.1,0c0,0,0.1,0,0.1-0.1l1.3-1.8c0.1-0.1,0-0.2,0-0.2
	c-1.5-1.2-3.1-1.7-5-1.7c-2.8,0-4.8,1.7-4.8,4.1c0,2.6,1.7,3.5,4.6,4.2c2.5,0.6,2.9,1.1,2.9,1.9c0,1-0.9,1.6-2.2,1.6
	c-1.5,0-2.8-0.5-4.2-1.7c0,0-0.1,0-0.1,0c0,0-0.1,0-0.1,0.1L35,20.1c-0.1,0.1-0.1,0.2,0,0.2c1.6,1.4,3.6,2.2,5.8,2.2
	c3,0,5-1.7,5-4.2C45.8,16.1,44.5,14.9,41.3,14.2C41.3,14.2,41.3,14.2,41.3,14.2z M52.7,11.6c-1.3,0-2.4,0.5-3.3,1.6V12
	c0-0.1-0.1-0.2-0.2-0.2h-2.3c-0.1,0-0.2,0.1-0.2,0.2v13.3c0,0.1,0.1,0.2,0.2,0.2h2.3c0.1,0,0.2-0.1,0.2-0.2v-4.2
	c0.9,1,2,1.5,3.3,1.5c2.5,0,4.9-1.9,4.9-5.5C57.6,13.5,55.2,11.6,52.7,11.6L52.7,11.6L52.7,11.6z M54.9,17.1c0,1.8-1.1,3.1-2.8,3.1
	c-1.6,0-2.8-1.3-2.8-3.1c0-1.8,1.2-3.1,2.8-3.1C53.8,13.9,54.9,15.3,54.9,17.1L54.9,17.1z M64,11.6c-3.2,0-5.6,2.4-5.6,5.5
	c0,3.1,2.5,5.5,5.6,5.5c3.2,0,5.6-2.4,5.6-5.5C69.6,14,67.1,11.6,64,11.6L64,11.6z M64,20.2c-1.7,0-2.9-1.3-2.9-3.1
	c0-1.8,1.2-3.1,2.9-3.1c1.7,0,3,1.3,3,3.1C66.9,18.9,65.7,20.2,64,20.2z M76.4,11.8h-2.6V9.2c0-0.1-0.1-0.2-0.2-0.2h-2.3
	c-0.1,0-0.2,0.1-0.2,0.2v2.6H70c-0.1,0-0.2,0.1-0.2,0.2v2c0,0.1,0.1,0.2,0.2,0.2h1.1v5.2c0,2.1,1,3.2,3.1,3.2c0.8,0,1.5-0.2,2.2-0.5
	c0.1,0,0.1-0.1,0.1-0.1v-1.9c0-0.1,0-0.1-0.1-0.1c-0.1,0-0.1,0-0.2,0c-0.5,0.2-0.9,0.3-1.4,0.3c-0.8,0-1.1-0.3-1.1-1.1v-4.8h2.6
	c0.1,0,0.2-0.1,0.2-0.2v-2C76.5,11.9,76.5,11.8,76.4,11.8L76.4,11.8L76.4,11.8z M85.3,11.8v-0.3c0-1,0.4-1.4,1.2-1.4
	c0.5,0,0.9,0.1,1.3,0.2c0.1,0,0.1,0,0.2,0c0,0,0.1-0.1,0.1-0.1v-2c0-0.1,0-0.1-0.1-0.2c-0.5-0.1-1.1-0.3-1.9-0.3
	c-2.2,0-3.3,1.2-3.3,3.5v0.5h-1.1c-0.1,0-0.2,0.1-0.2,0.2v2c0,0.1,0.1,0.2,0.2,0.2h1.1v8c0,0.1,0.1,0.2,0.2,0.2h2.3
	c0.1,0,0.2-0.1,0.2-0.2v-8h2.2l3.4,8c-0.4,0.8-0.8,1-1.3,1c-0.4,0-0.8-0.1-1.3-0.4c0,0-0.1,0-0.1,0c0,0-0.1,0-0.1,0.1l-0.8,1.7
	c0,0.1,0,0.2,0.1,0.2c0.8,0.4,1.6,0.6,2.5,0.6c1.7,0,2.7-0.8,3.5-3L97.5,12c0-0.1,0-0.1,0-0.2c0,0-0.1-0.1-0.1-0.1h-2.4
	c-0.1,0-0.1,0-0.2,0.1L92.2,19l-2.7-7.1c0-0.1-0.1-0.1-0.2-0.1L85.3,11.8L85.3,11.8L85.3,11.8z M80.1,11.8h-2.3
	c-0.1,0-0.2,0.1-0.2,0.2v10.2c0,0.1,0.1,0.2,0.2,0.2h2.3c0.1,0,0.2-0.1,0.2-0.2V12C80.3,11.9,80.2,11.8,80.1,11.8
	C80.1,11.8,80.1,11.8,80.1,11.8z M79,7.1c-0.9,0-1.7,0.8-1.7,1.7c0,0.9,0.8,1.7,1.7,1.7s1.7-0.8,1.7-1.7C80.6,7.9,79.9,7.1,79,7.1z"
	/>
</svg>
